<?xml version="1.0" standalone="no"?><svg xmlns="http://www.w3.org/2000/svg" viewBox="0 0 1440 320"><path fill="#1E55B3" fill-opacity="0.9" d="M0,192L21.8,165.3C43.6,139,87,85,131,101.3C174.5,117,218,203,262,240C305.5,277,349,267,393,245.3C436.4,224,480,192,524,149.3C567.3,107,611,53,655,37.3C698.2,21,742,43,785,85.3C829.1,128,873,192,916,197.3C960,203,1004,149,1047,128C1090.9,107,1135,117,1178,149.3C1221.8,181,1265,235,1309,266.7C1352.7,299,1396,309,1418,314.7L1440,320L1440,0L1418.2,0C1396.4,0,1353,0,1309,0C1265.5,0,1222,0,1178,0C1134.5,0,1091,0,1047,0C1003.6,0,960,0,916,0C872.7,0,829,0,785,0C741.8,0,698,0,655,0C610.9,0,567,0,524,0C480,0,436,0,393,0C349.1,0,305,0,262,0C218.2,0,175,0,131,0C87.3,0,44,0,22,0L0,0Z"></path></svg>