<svg xmlns="http://www.w3.org/2000/svg" version="1.1" xmlns:xlink="http://www.w3.org/1999/xlink" xmlns:svgjs="http://svgjs.dev/svgjs" width="1500" height="1500" viewBox="0 0 1500 1500"><rect width="1500" height="1500" fill="#ffffff"></rect><g transform="matrix(0.6666666666666666,0,0,0.6666666666666666,249.2967201697237,415.59139784946245)"><svg viewBox="0 0 372 248" data-background-color="#ffffff" preserveAspectRatio="xMidYMid meet" height="1000" width="1500" xmlns="http://www.w3.org/2000/svg" xmlns:xlink="http://www.w3.org/1999/xlink"><g id="tight-bounds" transform="matrix(1,0,0,1,0.2616200968627709,0.4000000000000057)"><svg viewBox="0 0 371.47675980627446 247.2" height="247.2" width="371.47675980627446"><g><svg viewBox="0 0 395.52 263.19962533050114" height="247.2" width="371.47675980627446"><g transform="matrix(1,0,0,1,0,162.6679274995363)"><svg viewBox="0 0 395.52 100.53169783096484" height="100.53169783096484" width="395.52"><g id="textblocktransform"><svg viewBox="0 0 395.52 100.53169783096484" height="100.53169783096484" width="395.52" id="textblock"><g><svg viewBox="0 0 395.52 100.53169783096484" height="100.53169783096484" width="395.52"><g transform="matrix(1,0,0,1,0,0)"><svg width="395.52" viewBox="-1.76 -36.01 195.84 49.779999999999994" height="100.53169783096484" data-palette-color="#1e55b3"><path d="M13.79-35.16L13.79-11.04Q13.79-7.64 12.93-4.14 12.06-0.63 10.51 2.65 8.96 5.93 6.79 8.79 4.61 11.65 2 13.77L2 13.77-1.76 11.5Q-0.29 9.5 0.81 6.96 1.9 4.42 2.64 1.68 3.37-1.05 3.74-3.81 4.1-6.57 4.1-9.06L4.1-9.06 4.1-35.16 13.79-35.16ZM58.27-17.63L58.27-17.63Q58.27-13.38 56.81-9.97 55.34-6.57 52.76-4.2 50.17-1.83 46.63-0.56 43.09 0.71 38.96 0.71L38.96 0.71Q34.84 0.71 31.3-0.56 27.76-1.83 25.17-4.2 22.58-6.57 21.12-9.97 19.65-13.38 19.65-17.63L19.65-17.63Q19.65-21.95 21.1-25.35 22.56-28.76 25.13-31.12 27.71-33.47 31.25-34.73 34.79-35.99 38.96-35.99L38.96-35.99Q43.14-35.99 46.68-34.73 50.22-33.47 52.79-31.12 55.37-28.76 56.82-25.35 58.27-21.95 58.27-17.63ZM48.41-17.63L48.41-17.63Q48.41-19.24 48.26-20.92 48.12-22.61 47.73-24.19 47.34-25.78 46.66-27.17 45.99-28.56 44.94-29.6 43.89-30.64 42.42-31.24 40.94-31.84 38.96-31.84L38.96-31.84Q36.96-31.84 35.47-31.24 33.98-30.64 32.93-29.61 31.88-28.59 31.22-27.2 30.56-25.81 30.19-24.23 29.81-22.66 29.66-20.96 29.51-19.26 29.51-17.63L29.51-17.63Q29.51-16.02 29.66-14.33 29.81-12.65 30.2-11.07 30.59-9.5 31.26-8.11 31.93-6.71 32.98-5.68 34.03-4.64 35.51-4.03 36.98-3.42 38.96-3.42L38.96-3.42Q40.89-3.42 42.33-4.04 43.77-4.66 44.82-5.73 45.87-6.79 46.57-8.19 47.26-9.59 47.67-11.17 48.07-12.74 48.24-14.4 48.41-16.06 48.41-17.63ZM96.67-9.55L96.67-9.55Q96.67-8.06 96.19-6.76 95.7-5.47 94.84-4.41 93.99-3.34 92.85-2.51 91.72-1.68 90.41-1.12 89.11-0.56 87.71-0.28 86.32 0 84.98 0L84.98 0 64.3 0 64.3-35.16 83.2-35.16Q84.44-35.16 85.81-34.97 87.18-34.79 88.48-34.4 89.79-34.01 90.97-33.37 92.16-32.74 93.05-31.82 93.94-30.91 94.47-29.71 94.99-28.52 94.99-26.98L94.99-26.98Q94.99-25.51 94.4-24.32 93.82-23.12 92.83-22.18 91.84-21.24 90.56-20.52 89.28-19.8 87.86-19.26L87.86-19.26Q89.64-18.77 91.24-17.97 92.84-17.16 94.05-15.99 95.26-14.82 95.97-13.22 96.67-11.62 96.67-9.55ZM85.15-26.12L85.15-26.12Q85.15-29.1 83.58-30.47 82-31.84 79.1-31.84L79.1-31.84 73.99-31.84 73.99-20.43 78.27-20.43Q79.58-20.43 80.83-20.76 82.08-21.09 83.04-21.79 84-22.49 84.58-23.56 85.15-24.63 85.15-26.12ZM86.86-10.16L86.86-10.16Q86.86-11.6 86.49-12.85 86.13-14.11 85.37-15.03 84.61-15.94 83.48-16.47 82.34-16.99 80.81-16.99L80.81-16.99 73.99-16.99 73.99-3.42 79.95-3.42Q81.44-3.42 82.71-3.91 83.98-4.39 84.91-5.27 85.83-6.15 86.35-7.4 86.86-8.64 86.86-10.16ZM127.7-4.49L127.7 0 102.46 0 102.46-35.16 127.7-35.16 127.7-30.66 112.15-30.66 112.15-19.8 124.16-19.8 124.16-15.33 112.15-15.33 112.15-4.49 127.7-4.49ZM162.51-10.74L162.51-10.74Q162.51-8.47 161.94-6.74 161.37-5 160.33-3.74 159.29-2.47 157.88-1.61 156.46-0.76 154.79-0.24 153.12 0.27 151.25 0.49 149.38 0.71 147.45 0.71L147.45 0.71Q144.91 0.71 142.76 0.33 140.62-0.05 138.72-0.87 136.83-1.68 135.09-2.98 133.34-4.27 131.61-6.13L131.61-6.13 136.59-11.18Q137.27-9.5 138.47-8.07 139.66-6.64 141.09-5.62 142.52-4.59 144.06-4 145.6-3.42 146.96-3.42L146.96-3.42Q148.57-3.42 149.99-3.65 151.41-3.88 152.46-4.42 153.51-4.96 154.1-5.85 154.7-6.74 154.7-8.08L154.7-8.08Q154.7-9.11 154.24-9.84 153.77-10.57 153.03-11.1 152.28-11.62 151.33-11.99 150.38-12.35 149.39-12.61 148.4-12.87 147.45-13.07 146.5-13.28 145.77-13.5L145.77-13.5Q144.33-13.92 142.76-14.39 141.2-14.87 139.69-15.48 138.17-16.09 136.82-16.88 135.46-17.68 134.44-18.76 133.41-19.85 132.8-21.28 132.19-22.71 132.19-24.56L132.19-24.56Q132.19-26.78 132.74-28.5 133.29-30.22 134.29-31.49 135.29-32.76 136.66-33.63 138.03-34.5 139.66-35.02 141.3-35.55 143.14-35.78 144.99-36.01 146.91-36.01L146.91-36.01Q149.55-36.01 151.71-35.52 153.87-35.03 155.7-34.13 157.53-33.23 159.06-31.97 160.59-30.71 161.93-29.17L161.93-29.17 156.95-24.12Q156.36-25.88 155.32-27.29 154.29-28.71 153.02-29.72 151.75-30.74 150.36-31.29 148.96-31.84 147.67-31.84L147.67-31.84Q145.99-31.84 144.57-31.6 143.15-31.37 142.14-30.85 141.13-30.32 140.57-29.43 140-28.54 140-27.22L140-27.22Q140-26.17 140.42-25.44 140.83-24.71 141.53-24.19 142.23-23.68 143.11-23.35 143.98-23.02 144.92-22.78 145.86-22.53 146.78-22.35 147.7-22.17 148.45-21.95L148.45-21.95Q149.92-21.53 151.53-21.07 153.14-20.61 154.7-19.98 156.26-19.36 157.68-18.55 159.1-17.75 160.17-16.64 161.24-15.53 161.88-14.07 162.51-12.62 162.51-10.74ZM184.51-30.66L184.51 0 174.82 0 174.82-30.66 165.25-30.66 165.25-35.16 194.08-35.16 194.08-30.66 184.51-30.66Z" opacity="1" transform="matrix(1,0,0,1,0,0)" fill="#1e55b3" class="wordmark-text-0" data-fill-palette-color="primary" id="text-0"></path></svg></g></svg></g></svg></g></svg></g><g transform="matrix(1,0,0,1,118.00582929720393,0)"><svg viewBox="0 0 159.50834140559212 138.93480640239343" height="138.93480640239343" width="159.50834140559212"><g><svg xmlns="http://www.w3.org/2000/svg" xmlns:xlink="http://www.w3.org/1999/xlink" version="1.1" x="8" y="0" viewBox="2.2 3.6499084270585795 95.7 92.65009157294142" enable-background="new 0 0 100 100" xml:space="preserve" height="138.93480640239343" width="143.50834140559212" class="icon-icon-0" data-fill-palette-color="accent" id="icon-0"><path d="M5.2 96.3H97.9V83.5H87.4L89.4 58.9 91.6 56.3C92.7 55 93.3 53.4 93.3 51.8L93.4 40.8V37.8C93.4 37.2 93.1 36.6 92.6 36.2 89.9 34 87 32.5 86.5 32.2 86.4 32.2 86.4 32.1 86.4 32V30.2C86.7 29.6 86.8 29.1 86.9 28.5 87 28.5 87 28.6 87.1 28.6 87.3 28.6 87.7 28.3 88 27.1 88.4 25.8 88.1 25.4 87.8 25.3 88.8 20.5 86.5 20.3 86.5 20.3S86.2 19.6 85.3 19.1C84.8 18.8 84.1 18.5 83.2 18.5H82.8C82.4 18.5 82.1 18.6 81.8 18.7 81.4 18.8 81 19 80.7 19.3 80.3 19.6 79.9 19.9 79.5 20.3 78.9 20.9 78.5 21.6 78.2 22.5 78 23.3 78 24.1 78.3 25H78.2C77.8 25 77.4 25.3 77.8 26.8 78.1 28 78.4 28.3 78.7 28.3 78.8 29 79 29.7 79.4 30.4V31.9C79.4 32 79.4 32 79.3 32.1 78.7 32.4 75.8 33.8 73.1 36 72.6 36.4 72.3 37 72.3 37.6V40.6L72.2 51.7C72.2 53.3 72.8 54.9 73.8 56.2L76 58.8 77.8 83.4H71.5V75.8H55.3L57.4 48.3 59.8 45.4C61 44 61.6 42.2 61.6 40.4V24.9C61.6 24.2 61.3 23.5 60.8 23.1 57.8 20.7 54.6 19 54 18.7 53.9 18.7 53.9 18.6 53.9 18.5V16.6C54.2 16 54.4 15.3 54.5 14.7 54.8 14.9 55.2 14.8 55.7 13.1 56.1 11.7 55.9 11.2 55.5 11.1H55.4C55.4 10.9 55.5 10.8 55.5 10.8 56.8 5.4 53.8 5.6 53.8 5.6 53.6 4.5 52 3.4 50.6 3.7S46.2 3.7 46.2 3.7C46.2 4.3 46.7 4.8 46.7 4.8 43.7 6.6 44.9 10.9 44.9 10.9 44.4 10.9 43.9 11.1 44.4 12.9 44.8 14.2 45.1 14.6 45.4 14.6 45.5 15.3 45.8 16.2 46.2 16.9V18.6C46.2 18.7 46.2 18.7 46.1 18.8 45.5 19.1 42.3 20.7 39.3 23.2 38.8 23.6 38.5 24.3 38.5 25V40.6C38.5 42.4 39.1 44.2 40.3 45.6L42.8 48.5 44.9 76H28.4V83.3H21.7L23.7 59.1 25.9 56.5C27 55.2 27.6 53.6 27.6 52L27.7 41V38C27.7 37.4 27.4 36.8 26.9 36.4 24.2 34.2 21.3 32.7 20.8 32.4 20.7 32.4 20.7 32.3 20.7 32.2V30.4C21 29.8 21.1 29.3 21.2 28.7 21.3 28.7 21.3 28.8 21.4 28.8 21.6 28.8 22 28.5 22.3 27.3 22.7 26 22.4 25.6 22.1 25.5 23.1 20.7 20.8 20.5 20.8 20.5S20.5 19.8 19.6 19.3C19.1 19 18.4 18.7 17.5 18.7H17.1C16.7 18.7 16.4 18.8 16.1 18.9 15.7 19 15.3 19.2 15 19.5 14.6 19.8 14.2 20.1 13.8 20.5 13.2 21.1 12.8 21.8 12.5 22.7 12.3 23.5 12.3 24.3 12.6 25.2H12.5C12.1 25.2 11.7 25.5 12.1 27 12.4 28.2 12.7 28.5 13 28.5 13.1 29.2 13.3 29.9 13.7 30.6V32.1C13.7 32.2 13.7 32.2 13.6 32.3 13 32.6 10.1 34 7.4 36.2 6.9 36.6 6.6 37.2 6.6 37.8V51.7C6.6 53.3 7.2 54.9 8.2 56.2L10.4 58.8 12.2 83.1H2.2V96.2zM82.9 33.7C83.3 33.7 85.6 33.9 83.4 36.9L84.4 46 82.8 47.8 81.2 46 82.3 36.9C80.2 33.8 82.5 33.7 82.9 33.7M50.1 20.6C50.6 20.6 53.1 20.8 50.7 24.1L51.9 34.2 50.1 36.2 48.3 34.2 49.4 24C47 20.7 49.6 20.6 50.1 20.6M17.2 33.7C17.6 33.7 19.9 33.9 17.7 36.9L18.7 46 17.1 47.8 15.5 46 16.6 36.9C14.5 33.8 16.8 33.7 17.2 33.7" fill="#b69193" data-fill-palette-color="accent"></path></svg></g></svg></g><g><rect width="105.98420920034117" height="9.066052259108572" y="128.86875414328486" x="277.51417070279604" fill="#b69193" data-fill-palette-color="accent"></rect><rect width="105.98420920034117" height="9.066052259108572" y="128.86875414328486" x="12.021620096862762" fill="#b69193" data-fill-palette-color="accent"></rect><rect width="105.98420920034117" height="9.066052259108572" y="110.73664962506771" x="277.51417070279604" fill="#b69193" data-fill-palette-color="accent"></rect><rect width="105.98420920034117" height="9.066052259108572" y="110.73664962506771" x="12.021620096862762" fill="#b69193" data-fill-palette-color="accent"></rect></g></svg></g><defs></defs></svg><rect width="371.47675980627446" height="247.2" fill="none" stroke="none" visibility="hidden"></rect></g></svg></g></svg>